<?xml version="1.0" standalone="no"?><!DOCTYPE svg PUBLIC "-//W3C//DTD SVG 1.1//EN" "http://www.w3.org/Graphics/SVG/1.1/DTD/svg11.dtd"><svg t="1767967026707" class="icon" viewBox="0 0 1024 1024" version="1.1" xmlns="http://www.w3.org/2000/svg" p-id="5370" xmlns:xlink="http://www.w3.org/1999/xlink" width="200" height="200"><path d="M511.9968 0.0032c136.959144 0 265.59834 53.119668 362.237736 149.823064A509.180818 509.180818 0 0 1 1023.9936 512.319998c0 137.023144-53.119668 265.150343-149.759064 361.853738A508.540822 508.540822 0 0 1 511.9968 1023.9968c-136.959144 0-265.59834-53.119668-362.237736-149.823064-199.678752-199.806751-199.678752-524.540722 0-724.347472A508.540822 508.540822 0 0 1 511.9968 0.0032z m0 63.9996a444.605221 444.605221 0 0 0-316.990019 131.071181 448.765195 448.765195 0 0 0 0 633.852038A444.605221 444.605221 0 0 0 511.9968 959.9972a444.605221 444.605221 0 0 0 316.990019-131.071181A443.709227 443.709227 0 0 0 959.994 512.319998a445.245217 445.245217 0 0 0-131.007181-317.246017A444.605221 444.605221 0 0 0 511.9968 64.0028z m0 191.9988c68.479572 0 132.79917 26.559834 181.118868 74.879532A254.590409 254.590409 0 0 1 767.9952 512.255998c0 68.479572-26.559834 132.479172-74.879532 180.86287A254.270411 254.270411 0 0 1 511.9968 767.9984a254.270411 254.270411 0 0 1-181.118868-74.879532 256.382398 256.382398 0 0 1 0-362.237736A254.270411 254.270411 0 0 1 511.9968 256.0016z" fill="#4981F2" p-id="5371"></path></svg>