<?xml version="1.0" standalone="no"?><!DOCTYPE svg PUBLIC "-//W3C//DTD SVG 1.1//EN" "http://www.w3.org/Graphics/SVG/1.1/DTD/svg11.dtd"><svg t="1768872830368" class="icon" viewBox="0 0 1024 1024" version="1.1" xmlns="http://www.w3.org/2000/svg" p-id="8868" xmlns:xlink="http://www.w3.org/1999/xlink" width="200" height="200"><path d="M1023.855962 230.51638a31.439506 31.439506 0 0 0-31.135511-31.751501c-19.687691-0.199997-35.591441-15.663754-35.407444-34.471459 0.119998-13.311791-8.111873-24.623613-19.75169-29.327539a31.023513 31.023513 0 0 0-12.551803-2.807956c-19.319697-0.183997-34.767454-15.199761-35.135448-33.591473 0-0.031999 0.031999-0.047999 0.032-0.079999a31.359508 31.359508 0 0 0-2.423962-12.359805 31.327508 31.327508 0 0 0-28.927546-20.111685h-0.271996c-0.551991 0-1.047984 0.287995-1.599975 0.319995-8.967859-0.599991-17.319728-4.007937-23.55163-10.343837a33.14348 33.14348 0 0 1-9.54385-23.167636c0.583991-12.847798-6.503898-25.287603-19.1037-30.495522-12.959796-5.391915-27.231572-1.079983-35.831437 9.239855-2.271964 2.591959-4.295933 5.399915-5.615912 8.663864l-65.374973 157.693524a206.012765 206.012765 0 0 0-110.886259-32.255493c-55.351131 0-107.382314 21.551662-146.533699 60.703046L206.588796 440.01709c-39.151385 39.135385-60.727046 91.182568-60.735046 146.533699 0 39.919373 11.359822 78.030775 32.255493 110.886259l-158.55751 65.742968a31.455506 31.455506 0 0 0-17.007733 41.087354c1.615975 3.895939 4.087936 7.063889 6.879892 9.887845 0.351994 0.335995 0.735988 0.61599 1.103983 0.951985 2.391962 2.207965 5.047921 3.991937 7.983874 5.343916 0.703989 0.335995 1.351979 0.671989 2.071968 0.983985 3.511945 1.311979 7.199887 2.231965 11.023827 2.231965 0.047999 0 0.079999-0.031999 0.103998-0.032 0.047999 0 0.079999 0.031999 0.127998 0.032h0.351994c9.247855 0.031999 17.21573 3.319948 23.671629 9.647848 6.3599 6.231902 9.783846 14.61577 10.351837 23.543631-0.031999 0.64799-0.351994 1.199981-0.351994 1.87197a31.375507 31.375507 0 0 0 20.039685 28.863547c2.879955 1.191981 6.127904 1.559976 9.359853 1.871971 0.703989 0.031999 1.319979 0.399994 2.039968 0.399993 0.279996 0 0.495992 0.151998 0.767988 0.151998h0.287995c0.063999 0 0.111998-0.024 0.167998-0.024 18.343712 0.335995 33.319477 15.871751 33.535473 35.215447 0.047999 4.423931 1.055983 8.591865 2.743957 12.407805 4.639927 11.607818 15.831751 19.831689 29.063544 19.831689a1.88797 1.88797 0 0 1 0.59999 0c8.831861 0 17.21573 3.527945 23.615629 9.983843a36.247431 36.247431 0 0 1 10.487836 25.359602 31.439506 31.439506 0 0 0 31.447506 31.167511h0.295995c1.823971-0.031999 3.391947-0.775988 5.12792-1.079983 2.151966-0.303995 4.247933-0.60799 6.279901-1.351979 0.599991-0.207997 1.151982-0.519992 1.719973-0.799988 7.399884-3.071952 13.727784-8.687864 17.039733-16.671738l65.726967-158.57351a205.67677 205.67677 0 0 0 110.774261 32.239494c55.351131 0 107.414313-21.551662 146.597698-60.735046l233.652331-233.652331c69.806904-69.782904 79.222756-177.293216 28.527552-257.371959l158.54151-65.710968a31.511505 31.511505 0 0 0 19.407696-28.959545c0-0.263996 0.143998-0.495992 0.143997-0.775988z m-275.963666-9.591849l47.591252-114.822197a97.638467 97.638467 0 0 0 35.815438 19.175699c9.511851 31.751501 34.879452 56.623111 67.334943 65.710968a95.654498 95.654498 0 0 0 20.055685 36.663424l-115.91818 48.055246-54.879138-54.78314z m-556.999254 677.893355c-9.055858-32.49549-33.903468-57.831092-65.742967-67.342943a97.142475 97.142475 0 0 0-19.343696-35.991435l115.326189-47.815249 54.831139 54.81514-48.287242 116.50217a95.966493 95.966493 0 0 0-36.783423-20.167683z m581.878863-359.906349L539.119574 772.547869a143.533746 143.533746 0 0 1-102.134396 42.311335c-37.983404 0-73.662843-14.735769-100.766418-41.263352-0.687989-0.743988-1.471977-1.319979-2.239965-1.999968L252.124081 689.765169c-0.719989-0.831987-1.367979-1.655974-2.167966-2.399963-26.511584-27.111574-41.223353-62.767014-41.223353-100.782417 0-38.591394 15.031764-74.814825 42.319336-102.086397l233.652331-233.652331a143.437748 143.437748 0 0 1 102.070397-42.287336c38.015403 0 73.734842 14.711769 100.838416 41.271352 0.711989 0.735988 1.479977 1.319979 2.239965 2.007968l80.206741 80.102743c1.071983 1.407978 2.335963 2.591959 3.623943 3.79194 55.311131 56.327115 55.063135 147.173689-0.911986 203.180809z" fill="#E0E0E0"  p-id="8869"></path></svg>