<svg version="1.0" xmlns="http://www.w3.org/2000/svg" width="800.000000" height="800.000000" viewBox="0 0 800.000000 800.000000" preserveAspectRatio="xMidYMid meet">
  <metadata>
    <rdf:RDF xmlns:rdf="http://www.w3.org/1999/02/22-rdf-syntax-ns#" xmlns:rdfs="http://www.w3.org/2000/01/rdf-schema#" xmlns:dc="http://purl.org/dc/elements/1.1/">
      <rdf:Description dc:format="image/svg+xml" dc:Label="1" dc:ContentProducer="001191330110MACRLGPT8B00000" dc:ProduceID="359216089" dc:ReservedCode1="VrUOsRrmx1pLvdiCgnqj7CyCoqsUW/4yGo7cP8w5+bI=" dc:ContentPropagator="001191330110MACRLGPT8B00000" dc:PropagateID="359216089" dc:ReservedCode2="VrUOsRrmx1pLvdiCgnqj7CyCoqsUW/4yGo7cP8w5+bI="/>
    </rdf:RDF>
  </metadata>
  <g transform="translate(0.000000,800.000000) scale(0.100000,-0.100000)" fill="#E0E0E0"   stroke="none">
    <path d="M3032 6561 c-18 -5 -56 -21 -84 -35 l-50 -26 -59 21 c-120 44 -258 2 -361 -110 l-54 -58 -61 0 c-81 -1 -141 -31 -209 -106 l-53 -59 -108 68 c-137 87 -325 181 -450 227 -106 39 -251 77 -296 77 -42 0 -93 -25 -113 -55 -29 -44 -19 -88 47 -214 123 -232 319 -511 503 -713 l106 -118 -62 -31 c-187 -94 -391 -238 -479 -337 -69 -78 -127 -172 -161 -262 -29 -78 -32 -94 -32 -205 0 -104 4 -129 26 -187 41 -109 87 -177 183 -273 132 -131 270 -207 470 -260 l90 -23 -1 -44 c-1 -24 -6 -92 -12 -152 -18 -166 -15 -464 8 -701 15 -162 19 -277 17 -505 -2 -246 1 -310 16 -388 20 -107 34 -139 77 -176 53 -44 116 -56 294 -55 191 0 219 7 261 67 l30 44 0 211 0 212 50 3 c28 2 78 1 113 -3 52 -6 65 -10 71 -28 5 -12 21 -119 35 -237 57 -456 76 -512 187 -560 40 -17 85 -24 188 -31 207 -14 270 1 304 74 15 30 17 75 17 326 0 336 -7 315 100 299 106 -16 420 -13 585 6 83 10 235 33 338 52 103 19 192 34 196 34 5 0 22 -58 39 -128 44 -179 106 -367 142 -429 21 -36 45 -61 77 -80 l48 -28 200 0 c223 0 235 3 276 68 17 26 19 44 16 100 -2 37 -2 66 2 65 3 -2 40 -23 81 -48 72 -43 78 -45 150 -44 60 1 93 8 165 36 237 93 305 153 305 275 0 18 -11 101 -25 185 -13 84 -32 207 -40 273 -17 133 -32 395 -22 395 4 0 16 -18 27 -40 12 -23 53 -74 92 -116 54 -56 89 -83 146 -112 73 -36 80 -37 181 -37 98 0 111 2 165 30 104 53 158 144 160 271 l1 62 42 22 c100 53 170 140 197 246 16 63 14 106 -7 135 -7 8 -46 35 -87 59 -228 132 -312 289 -380 715 -17 105 -42 233 -56 285 -124 473 -559 748 -1029 651 -296 -61 -527 -253 -611 -509 -25 -74 -30 -82 -53 -82 -14 -1 -84 -16 -154 -34 -86 -22 -130 -29 -132 -22 -2 6 -6 47 -9 90 -3 61 -12 93 -34 139 -30 59 -30 60 -12 91 10 17 28 64 40 105 46 152 12 336 -79 425 -37 36 -38 37 -30 94 11 81 -6 195 -40 267 -50 105 -131 168 -239 184 l-45 6 -14 70 c-29 140 -102 243 -210 292 -50 23 -64 25 -133 20 -74 -6 -78 -5 -88 18 -20 43 -84 106 -135 132 -60 30 -136 39 -206 24 l-52 -11 -31 36 c-60 68 -180 106 -266 85z m83 -223 c83 -38 96 -179 28 -315 -28 -57 -33 -59 -82 -42 -27 10 -32 15 -26 33 22 71 26 111 21 191 -2 50 -8 102 -12 118 -6 24 -4 27 19 27 14 0 38 -5 52 -12z m-325 -23 c46 -24 64 -68 63 -155 -1 -41 -6 -88 -12 -104 -10 -25 -15 -28 -42 -22 -18 3 -60 6 -94 6 l-63 0 -6 45 c-4 24 -20 70 -36 102 l-29 58 26 27 c53 56 134 74 193 43z m-1320 -24 c40 -16 74 -32 77 -35 6 -6 -58 -84 -70 -85 -7 -1 -97 133 -97 144 0 10 19 5 90 -24z m2033 -57 c54 -54 60 -177 13 -279 -26 -57 -109 -155 -132 -155 -10 0 -77 39 -92 54 -1 2 15 37 37 77 49 90 71 172 71 260 0 62 2 68 23 71 33 5 54 -2 80 -28z m-1783 -83 c8 -17 1 -29 -46 -81 -54 -58 -58 -60 -75 -44 -27 24 -24 35 21 67 22 16 48 39 58 52 21 30 28 31 42 6z m668 -17 c25 -18 62 -84 62 -112 0 -14 -15 -25 -57 -40 l-56 -21 -38 42 c-45 49 -46 59 -18 99 33 46 71 58 107 32z m1499 -106 c76 -71 82 -270 13 -417 -31 -64 -108 -154 -158 -183 l-29 -17 -57 82 c-31 45 -68 96 -82 113 l-25 32 60 68 c68 76 121 177 146 274 9 36 19 69 22 74 10 15 84 -2 110 -26z m-2044 -76 c-7 -9 -25 -38 -39 -64 -15 -27 -30 -48 -33 -48 -4 0 -14 9 -23 20 -16 18 -15 22 35 73 32 34 56 51 62 45 6 -5 5 -15 -2 -26z m211 -118 c4 -9 0 -24 -7 -33 -8 -9 -29 -44 -47 -78 -18 -35 -36 -63 -39 -63 -3 0 -19 12 -35 26 l-29 26 69 68 c38 37 72 68 75 69 4 0 10 -6 13 -15z m786 1 c265 -39 475 -179 637 -424 153 -231 236 -497 283 -911 32 -274 38 -296 107 -361 143 -137 388 -138 558 -2 28 22 61 59 75 81 21 35 30 42 58 42 19 0 113 12 210 27 241 37 434 38 542 5 144 -46 240 -112 314 -216 152 -213 208 -465 226 -1006 10 -284 20 -382 71 -633 34 -173 36 -203 11 -216 -40 -21 -256 -91 -282 -91 -21 0 -38 11 -63 41 -36 41 -124 210 -182 349 -43 100 -63 114 -171 119 -111 4 -246 -10 -678 -70 -514 -71 -596 -79 -888 -79 -250 0 -259 -1 -311 -24 -30 -13 -58 -30 -63 -37 -4 -7 -9 -123 -9 -256 -2 -301 4 -287 -131 -281 -101 4 -118 12 -128 61 -29 145 -86 485 -86 515 0 64 -39 100 -135 123 -171 41 -357 70 -396 64 -86 -15 -128 -83 -110 -181 13 -71 14 -194 2 -227 -12 -31 -27 -36 -115 -43 -49 -3 -79 -1 -96 8 -50 27 -54 52 -56 338 -2 169 -9 320 -19 415 -30 261 -21 595 23 845 l8 45 129 7 c212 12 333 47 400 118 41 43 42 101 2 153 -43 57 -77 70 -167 65 -89 -5 -153 -35 -185 -85 -18 -29 -25 -32 -67 -33 -27 0 -48 4 -48 8 0 5 14 46 31 93 58 156 71 297 45 459 -36 224 -131 427 -281 604 -31 37 -55 69 -53 70 54 44 83 54 130 49 44 -5 52 -3 78 22 17 16 30 38 30 49 1 14 22 37 61 66 97 72 183 168 203 225 31 88 26 85 166 110 101 18 205 18 320 0z m1388 -178 c93 -98 58 -325 -74 -475 -99 -113 -268 -180 -287 -115 -3 10 -16 48 -30 84 l-26 66 75 53 c115 82 195 188 235 309 12 36 26 74 31 84 12 24 50 21 76 -6z m-2487 -549 c76 -109 174 -316 204 -432 39 -151 35 -218 -22 -408 -27 -90 -53 -158 -59 -158 -33 0 -208 66 -274 103 -160 90 -292 264 -306 403 -12 115 43 237 165 367 62 67 217 197 233 197 4 0 31 -33 59 -72z m2665 -3 c12 -47 -2 -139 -28 -197 -34 -73 -108 -153 -173 -185 -56 -29 -157 -41 -215 -26 -32 8 -36 14 -48 62 -7 29 -11 55 -9 58 3 2 41 17 85 32 43 15 106 42 138 61 63 37 198 167 209 200 9 28 33 25 41 -5z m1473 -206 c130 -21 269 -105 354 -216 92 -120 127 -223 177 -518 41 -242 80 -395 131 -511 67 -153 142 -256 245 -336 30 -24 54 -46 54 -50 0 -12 -77 -48 -103 -48 -50 0 -125 31 -170 71 -56 49 -109 151 -137 264 -11 44 -33 177 -50 295 -58 407 -118 570 -253 696 -32 30 -81 66 -108 79 -177 90 -429 65 -599 -60 l-47 -35 -77 15 c-43 8 -80 15 -82 15 -2 0 8 19 22 43 102 165 341 299 544 306 19 0 64 -4 99 -10z m-1486 -378 c-3 -102 -63 -193 -158 -238 -32 -15 -38 -14 -137 14 l-103 29 -9 68 c-11 79 -6 86 65 86 68 0 192 35 262 73 34 19 67 33 72 32 6 -1 9 -29 8 -64z m1507 -119 c137 -59 179 -151 220 -482 36 -295 62 -412 127 -567 80 -188 217 -312 387 -348 55 -11 61 -14 58 -36 -10 -88 -114 -114 -226 -58 -118 59 -214 219 -315 524 -50 152 -63 182 -85 195 -17 10 -26 24 -26 40 0 45 -59 247 -99 339 -49 114 -114 210 -202 303 -71 73 -77 91 -37 108 34 15 146 4 198 -18z m-724 -2019 c24 -58 94 -295 94 -320 0 -12 -5 -25 -10 -28 -6 -4 -55 -11 -110 -17 -84 -9 -103 -8 -123 5 -31 20 -136 335 -116 348 8 4 56 15 109 24 52 9 100 18 105 20 26 9 36 2 51 -32z"/>
    <path d="M2687 5236 c-49 -18 -76 -42 -93 -83 -34 -80 1 -240 66 -305 34 -35 42 -38 93 -38 71 0 108 29 134 103 26 77 25 226 -3 263 -48 66 -122 88 -197 60z"/>
    <path d="M5154 4121 c-47 -21 -84 -64 -84 -96 0 -48 73 -105 135 -105 29 0 85 70 106 132 10 32 9 41 -5 63 -14 21 -24 25 -64 25 -26 0 -65 -9 -88 -19z"/>
    <path d="M5316 3988 c-20 -22 -43 -60 -52 -83 -14 -38 -14 -46 -1 -78 17 -39 67 -72 96 -62 15 4 24 -4 41 -40 29 -59 59 -79 108 -72 99 16 112 149 18 173 -21 5 -24 10 -20 34 9 40 -20 89 -56 97 -16 3 -28 9 -25 13 8 13 -35 60 -55 60 -10 0 -34 -19 -54 -42z"/>
    <path d="M1481 4644 c-49 -41 -65 -117 -45 -211 6 -29 52 -53 104 -53 33 0 48 6 71 29 24 25 29 38 29 79 0 58 -22 137 -46 163 -25 28 -76 24 -113 -7z"/>
  </g>
</svg>