<?xml version="1.0" standalone="no"?><!DOCTYPE svg PUBLIC "-//W3C//DTD SVG 1.1//EN" "http://www.w3.org/Graphics/SVG/1.1/DTD/svg11.dtd"><svg t="1768819920484" class="icon" viewBox="0 0 1024 1024" version="1.1" xmlns="http://www.w3.org/2000/svg" p-id="5423" xmlns:xlink="http://www.w3.org/1999/xlink" width="200" height="200"><path d="M0 0h1024v1024H0z" fill="#FAECBF" p-id="5424"></path><path d="M605.354667 240l-14.208 109.013333S560.256 315.733333 567.466667 270.677333c5.845333-38.144 37.888-30.677333 37.888-30.677333z" fill="#FFFFFF" p-id="5425"></path><path d="M591.146667 355.413333a6.357333 6.357333 0 0 1-4.650667-2.048c-1.365333-1.450667-32.938667-35.925333-25.6-83.669333 2.218667-14.165333 7.978667-24.448 17.066667-30.634667a39.552 39.552 0 0 1 28.672-5.290666 6.442667 6.442667 0 0 1 4.906666 7.082666L597.333333 349.866667a6.229333 6.229333 0 0 1-4.266666 5.248 6.144 6.144 0 0 1-1.92 0.298666z m6.997333-109.568a24.064 24.064 0 0 0-12.8 3.925334c-6.016 4.266667-9.898667 11.477333-11.52 21.888a91.178667 91.178667 0 0 0 13.226667 60.544z" fill="#740E62" p-id="5426"></path><path d="M779.477333 558.421333a276.138667 276.138667 0 0 1-26.368 115.925334c-1.365333 2.944-2.730667 5.845333-4.266666 8.533333-0.426667 0.853333-0.853333 1.706667-1.322667 2.56-1.237333 2.432-2.517333 4.864-3.882667 7.253333a7.765333 7.765333 0 0 1-0.64 1.152c-1.408 2.602667-2.944 5.162667-4.266666 7.68-0.810667 1.365333-1.621333 2.730667-2.517334 4.053334s-1.365333 2.218667-2.090666 3.285333-1.877333 2.858667-2.858667 4.266667-1.408 2.090667-2.176 3.114666c-1.706667 2.432-3.413333 4.821333-5.248 7.168-0.853333 1.194667-1.749333 2.346667-2.645333 3.456s-1.450667 1.877333-2.261334 2.816c-1.237333 1.621333-2.56 3.2-3.925333 4.778667-4.266667 4.992-8.533333 9.728-13.056 14.293333l-3.797333 3.84c-3.669333 3.541333-7.381333 6.954667-11.178667 10.24-1.706667 1.493333-3.413333 2.901333-5.162667 4.266667h-0.213333c45.568-69.717333-37.034667-149.333333-38.613333-201.301333 0 0-2.048-36.053333 40.789333-101.589334 35.498667-54.357333-2.816-106.922667-36.437333-135.722666 1.322667 0.554667 2.645333 1.152 4.010666 1.834666l2.816 1.408c2.858667 1.493333 5.802667 3.157333 8.832 5.077334 1.024 0.597333 2.005333 1.237333 3.029334 1.92q6.101333 3.968 12.416 8.96c1.066667 0.810667 2.090667 1.664 3.157333 2.56 5.248 4.266667 10.581333 9.088 15.914667 14.336l1.664 1.664a269.610667 269.610667 0 0 1 22.869333 26.197333l2.133333 2.816 1.536 2.090667c1.024 1.365333 2.005333 2.730667 2.986667 4.266666a286.72 286.72 0 0 1 33.322667 62.250667c0.682667 1.706667 1.322667 3.456 1.962666 5.205333a335.4752 335.4752 0 0 1 4.778667 14.464c0.725333 2.389333 1.664 5.845333 2.432 8.789334 0.426667 1.536 0.810667 3.114667 1.194667 4.693333s0.597333 2.474667 0.853333 3.712 0.64 2.645333 0.896 4.010667 0.725333 3.413333 1.024 5.12 0.64 3.413333 0.938667 5.12q0.896 5.205333 1.536 10.496c0.469333 3.584 0.853333 7.253333 1.152 10.922666 0 1.365333 0.256 2.730667 0.341333 4.266667v11.178667c0 1.536 0.341333 4.437333 0.341333 6.570666z" fill="#EE719B" p-id="5427"></path><path d="M681.344 767.658667s-0.64 0.554667-0.981333 0.768l-3.968 3.2c-1.664 1.322667-3.370667 2.602667-5.077334 3.882666l-5.12 3.712c-2.816 2.005333-5.632 3.925333-8.533333 5.802667-1.152 0.810667-2.304 1.536-3.456 2.261333l-6.101333 3.712c-2.730667 1.621333-5.504 3.2-8.277334 4.736l-0.426666 0.256-5.418667 2.858667c-5.546667 2.901333-11.178667 5.589333-17.066667 8.106667-2.432 1.109333-4.864 2.133333-7.338666 3.114666s-4.266667 1.749333-6.528 2.56l-3.456 1.28c-3.2 1.152-6.4 2.261333-9.642667 3.285334-1.962667 0.682667-3.925333 1.28-5.888 1.877333l-3.712 1.066667c-2.304 0.725333-4.650667 1.365333-6.997333 1.962666-4.010667 1.024-8.021333 2.005333-12.032 2.858667l-5.632 1.194667-3.712 0.682666c-3.157333 0.597333-6.314667 1.152-9.429334 1.621334-1.493333 0.213333-2.986667 0.469333-4.522666 0.64 74.282667-26.837333 28.586667-119.68 38.997333-179.626667 0 0 5.589333-62.421333 65.621333-83.2 1.621333 52.053333 84.266667 131.669333 38.698667 201.386667z" fill="#E7DF37" p-id="5428"></path><path d="M538.112 829.184l-4.266667 0.554667-8.064 0.853333c-2.858667 0.298667-5.76 0.512-8.533333 0.725333h-1.536c-2.944 0-5.845333 0.298667-8.789333 0.384s-6.314667 0-9.472 0c-55.466667 0-109.013333-15.402667-150.954667-45.482666a207.104 207.104 0 0 1-17.066667-13.824 194.517333 194.517333 0 0 1-33.536-39.168c-1.322667-2.090667-2.602667-4.266667-3.84-6.314667l0.938667 0.768 1.408 1.92 1.706667 1.237333c0.896 0.64 1.962667 1.408 3.157333 2.176l2.005333 1.28 1.578667 0.981334 3.456 2.005333q2.730667 1.621333 5.888 3.072c2.090667 1.024 4.266667 2.005333 6.613333 2.944a72.533333 72.533333 0 0 0 44.714667 4.266667c1.536-0.384 3.072-0.853333 4.650667-1.408 0.768-0.256 1.578667-0.512 2.389333-0.853334a91.733333 91.733333 0 0 0 11.178667-5.12c1.237333-0.64 2.517333-1.322667 3.754666-2.090666q3.797333-2.090667 7.68-4.608c2.602667-1.621333 5.205333-3.370667 7.850667-5.205334 5.077333-3.456 10.24-7.168 15.488-11.050666l2.474667-1.877334c24.277333-17.962667 50.602667-38.4 78.506666-48.554666 50.816-18.432 79.616-16.810667 79.616-16.810667-10.410667 59.52 35.285333 152.362667-38.997333 179.2z" fill="#8CCBA0" p-id="5429"></path><path d="M683.52 464.768c-42.666667 65.536-40.789333 101.589333-40.789333 101.589333-60.032 20.778667-65.621333 83.2-65.621334 83.2s-28.8-1.621333-79.616 16.810667c-27.904 10.112-54.229333 30.592-78.506666 48.554667l134.912-241.109334a158.208 158.208 0 0 1-14.464 8.533334c-102.016 53.162667-219.093333-30.421333-219.093334-30.421334a118.826667 118.826667 0 0 1-79.232 27.221334c-26.368 0-34.389333-69.589333-14.378666-83.2 4.650667-3.157333 25.941333-8.533333 56.533333-15.274667s70.4-14.250667 112.213333-21.76c88.362667-15.872 188.586667-31.744 223.616-34.56q3.370667-0.341333 6.016-0.384a36.522667 36.522667 0 0 1 6.698667 0.384 58.538667 58.538667 0 0 1 5.973333 1.322667l2.517334 0.768 2.602666 0.896 2.688 1.066666 1.365334 0.554667c33.749333 28.885333 72.064 81.450667 36.565333 135.808z" fill="#FFFFFF" p-id="5430"></path><path d="M631.808 324.266667a36.522667 36.522667 0 0 0-6.698667-0.384q-2.645333 0-6.016 0.384c-35.029333 2.816-135.253333 18.688-223.616 34.56-104.064 11.776-128.469333-92.672-128.469333-92.672s62.933333 30.933333 128-1.066667a87.637333 87.637333 0 0 1 39.168-8.533333c25.386667 0 53.504 8.021333 81.066667 18.730666a809.6 809.6 0 0 1 74.24 33.109334c13.056 6.058667 25.088 11.477333 35.541333 15.317333a33.28 33.28 0 0 1 6.784 0.554667z" fill="#EE719B" p-id="5431"></path><path d="M589.568 308.608a809.6 809.6 0 0 0-74.24-33.109333L494.933333 102.4z" fill="#F5E588" p-id="5432"></path><path d="M396.8 367.274667l-3.029333-16.768c83.242667-14.976 187.050667-31.658667 224.426666-34.688l1.408 17.066666c-31.829333 2.517333-127.616 17.365333-222.805333 34.389334z" fill="#740E62" p-id="5433"></path><path d="M496.896 838.4c-91.264 0-171.136-40.533333-210.901333-108.032a6.4 6.4 0 0 1 9.685333-8.064c0.341333 0.256 32.426667 27.306667 66.261333 18.645333 17.322667-4.266667 37.504-19.456 58.837334-35.370666 22.442667-16.682667 47.872-35.626667 74.538666-45.269334 38.869333-14.037333 65.152-16.725333 76.245334-17.066666 2.944-16.256 15.488-61.994667 64.896-81.322667 0.853333-12.245333 6.613333-46.933333 41.685333-100.608 36.352-55.466667-11.477333-106.666667-34.645333-126.848a44.757333 44.757333 0 0 0-18.090667-4.266667l-5.802667 0.384-1.024-12.8 6.229334-0.426666c30.293333-1.322667 78.677333 35.797333 112.682666 86.357333 32.597333 48.426667 78.72 148.352 21.333334 273.066667-43.008 93.866667-137.301333 155.434667-246.058667 160.981333-5.034667 0.512-10.581333 0.64-15.872 0.64z m-182.741333-90.282667c43.648 52.181333 116.778667 81.066667 198.058666 77.098667 103.978667-5.333333 194.048-64 235.093334-153.6 54.656-119.082667 10.666667-214.442667-20.437334-260.650667A265.429333 265.429333 0 0 0 685.184 362.666667c17.962667 27.562667 29.866667 65.578667 3.669333 105.685333-40.832 62.506667-39.765333 97.450667-39.765333 97.792a6.442667 6.442667 0 0 1-4.266667 6.357333c-55.466667 19.242667-61.269333 77.141333-61.312 77.738667a6.442667 6.442667 0 0 1-6.741333 5.802667c-0.298667 0-28.416-1.194667-77.098667 16.426666-24.874667 9.002667-48.426667 26.538667-71.210666 43.52s-43.605333 32.426667-63.36 37.461334a79.786667 79.786667 0 0 1-50.944-5.333334z" fill="#740E62" p-id="5434"></path><path d="M684.842667 770.090667l-7.168-4.650667c28.288-43.093333 4.778667-91.050667-15.957334-133.376-11.648-23.808-22.656-46.293333-23.253333-65.578667l8.533333-0.298666c0.512 17.493333 11.136 39.168 22.4 62.122666 21.802667 44.373333 46.336 94.634667 15.445334 141.781334zM539.434667 833.237333l-2.901334-8.064c47.658667-17.066667 42.666667-62.848 37.76-111.274666-2.346667-22.357333-4.778667-45.44-1.365333-65.109334l8.533333 1.493334c-3.2 18.432-0.853333 40.96 1.450667 62.72 5.077333 49.578667 10.496 100.821333-43.477333 120.234666z" fill="#740E62" p-id="5435"></path><path d="M497.621333 840.533333a300.757333 300.757333 0 0 1-52.394666-4.565333c-71.594667-12.8-128.768-49.792-161.024-104.533333a8.533333 8.533333 0 0 1 12.8-10.837334c0.298667 0.256 31.616 26.581333 64.298666 18.218667 15.104-3.84 33.024-16.384 50.048-28.928l0.981334-0.768 119.722666-213.930667c-41.557333 17.664-90.794667 17.706667-143.232 0a319.658667 319.658667 0 0 1-68.266666-32.597333 130.261333 130.261333 0 0 1-79.872 25.130667c-13.056 0-23.936-10.88-29.866667-29.866667-7.552-24.490667-5.589333-57.813333 10.709333-68.906667 9.088-6.186667 60.245333-17.28 115.2-27.904C275.84 338.090667 258.901333 268.8 258.688 268.074667a8.533333 8.533333 0 0 1 2.986667-8.533334 8.533333 8.533333 0 0 1 9.088-0.981333c0.554667 0.256 60.117333 28.586667 120.448-1.066667 35.242667-17.322667 79.658667-6.912 114.005333 5.248L486.4 103.552a8.533333 8.533333 0 0 1 16.256-4.522667l93.184 203.136c10.410667 4.821333 21.12 9.642667 30.549333 13.184a63.402667 63.402667 0 0 1 23.765334 5.76c37.76 16.256 91.221333 66.944 119.466666 139.904 18.858667 49.066667 32.682667 126.506667-8.789333 216.874667A267.989333 267.989333 0 0 1 686.933333 773.973333a2.218667 2.218667 0 0 1-0.469333 0.426667 299.306667 299.306667 0 0 1-188.842667 66.133333z m-176.384-87.466666c30.805333 33.834667 74.709333 56.917333 126.762667 66.133333 80.810667 14.293333 165.802667-7.338667 227.413333-57.856l0.341334-0.298667a251.221333 251.221333 0 0 0 69.418666-90.282666c38.997333-84.949333 26.069333-157.610667 8.533334-203.605334-25.130667-65.322667-74.410667-115.2-110.122667-130.346666a43.52 43.52 0 0 0-18.133333-4.266667 8.533333 8.533333 0 0 1-3.285334-0.512c-11.264-4.266667-24.064-9.941333-36.181333-15.616a8.533333 8.533333 0 0 1-4.266667-4.266667l-71.893333-156.928 13.994667 119.466667a8.533333 8.533333 0 0 1-11.562667 8.96c-51.626667-20.053333-87.722667-23.466667-113.493333-10.752-47.658667 23.424-93.866667 15.232-117.973334 7.722667 11.264 27.221333 42.112 77.994667 113.706667 69.973333a8.533333 8.533333 0 0 1 2.474667 17.066667c-105.045333 18.944-158.805333 31.616-165.504 35.754666-7.125333 4.864-10.410667 28.8-3.968 49.749334 3.370667 11.008 8.533333 17.834667 13.610666 17.834666a112.597333 112.597333 0 0 0 73.386667-24.917333 8.533333 8.533333 0 0 1 10.794667-0.725333c1.152 0.810667 114.090667 79.872 210.176 29.866666a155.818667 155.818667 0 0 0 13.738666-8.106666 8.533333 8.533333 0 0 1 12.117334 11.306666l-134.912 240.682667a8.533333 8.533333 0 0 1-2.304 2.645333l-0.512 0.384-1.792 1.365334c-19.413333 14.293333-38.101333 27.306667-56.192 31.914666a78.677333 78.677333 0 0 1-44.373334-2.346666z" fill="#740E62" p-id="5436"></path><path d="M585.472 316.074667c-26.837333-14.592-72.533333-32.426667-73.216-32.597334l6.144-15.914666a798.293333 798.293333 0 0 1 75.264 33.536zM483.882667 379.946667c-10.410667 0-18.816 13.610667-18.816 30.421333a44.416 44.416 0 0 0 3.498666 17.621333l14.08-2.56-6.869333 12.330667a13.141333 13.141333 0 0 0 8.106667 2.986667c10.368 0 18.773333-13.610667 18.773333-30.378667s-8.405333-30.421333-18.773333-30.421333z" fill="#740E62" p-id="5437"></path><path d="M631.765333 241.536l-14.506666 108.970667s38.4-23.978667 43.264-69.461334c4.138667-38.442667-28.757333-39.509333-28.757334-39.509333z" fill="#FFFFFF" p-id="5438"></path><path d="M617.258667 356.906667a6.4 6.4 0 0 1-6.357334-7.253334l14.506667-108.928a6.357333 6.357333 0 0 1 6.570667-5.546666 39.210667 39.210667 0 0 1 26.282666 12.501333c7.253333 8.533333 10.154667 19.797333 8.533334 34.133333-5.12 48-44.586667 73.173333-46.250667 74.197334a6.442667 6.442667 0 0 1-3.285333 0.896z m19.968-107.861334l-11.52 86.314667a90.581333 90.581333 0 0 0 28.458666-54.997333c1.152-10.581333-0.725333-18.730667-5.546666-24.277334a24.32 24.32 0 0 0-11.392-7.04zM220.629333 463.402667a4.266667 4.266667 0 1 1 0-8.533334c16.512 0 60.757333-3.797333 66.858667-20.864a4.266667 4.266667 0 1 1 8.064 2.858667c-9.258667 25.6-68.266667 26.538667-74.922667 26.538667z" fill="#740E62" p-id="5439"></path><path d="M235.178667 427.008a11.605333 8.32 90 1 0 16.64 0 11.605333 8.32 90 1 0-16.64 0Z" fill="#740E62" p-id="5440"></path><path d="M317.824 679.808a8.533333 8.533333 0 0 1-5.376-1.92l-23.210667-18.816-29.866666 1.664a8.533333 8.533333 0 0 1-8.533334-11.605333l10.752-27.861334-10.837333-27.861333a8.533333 8.533333 0 0 1 1.066667-8.106667 8.533333 8.533333 0 0 1 7.338666-3.498666l29.866667 1.578666 23.125333-18.901333a8.533333 8.533333 0 0 1 13.653334 4.266667l7.68 28.885333 25.130666 16.170667a8.533333 8.533333 0 0 1 0 14.336l-25.088 16.213333-7.637333 28.928a8.533333 8.533333 0 0 1-5.589333 5.930667 9.258667 9.258667 0 0 1-2.474667 0.597333z m-25.6-38.016a8.533333 8.533333 0 0 1 5.376 1.92l15.488 12.586667 5.12-19.285334a8.533333 8.533333 0 0 1 3.584-4.992l16.768-10.88-16.768-10.794666a8.533333 8.533333 0 0 1-3.626667-4.992l-5.162666-19.285334-15.445334 12.8a8.533333 8.533333 0 0 1-5.888 1.92l-19.925333-1.066666 7.253333 18.602666a8.533333 8.533333 0 0 1 0 6.144l-7.210666 18.645334 19.968-1.109334z" fill="#740E62" p-id="5441"></path></svg>