<?xml version="1.0" standalone="no"?><!DOCTYPE svg PUBLIC "-//W3C//DTD SVG 1.1//EN" "http://www.w3.org/Graphics/SVG/1.1/DTD/svg11.dtd"><svg t="1768819867222" class="icon" viewBox="0 0 1024 1024" version="1.1" xmlns="http://www.w3.org/2000/svg" p-id="5082" xmlns:xlink="http://www.w3.org/1999/xlink" width="200" height="200"><path d="M159.512 907.116s-66.844-6.028-121.96-55.628a20.62 20.62 0 0 1 8.248-35.18c29.516-8.68 70.02-27.004 86.712-65.292a8.328 8.328 0 0 0-4.46-10.908c-20.512-9.02-78.14-37.224-102.536-81.228a14.372 14.372 0 0 1 14.436-20.896c25.248 2.34 64.62-5.24 92.048-66.348a10.296 10.296 0 0 0-3.776-12.912c-18.848-12.476-69.068-47.648-84.724-79.58a13.908 13.908 0 0 1 14.324-19.82c27.436 3.428 78.46-1.868 101.688-80.208 32.612-109.976 140-80 140-80s-10.436-92.156 17.924-139.072a10.336 10.336 0 0 1 16.816-0.424c8.636 10.784 26.468 23.748 61.26 15.952 55.84-12.512 86.724-95.768 204-80.456 117.276 15.316 166.792 72.072 192 140 23.544 63.44 49.408 140.78 120.264 134.6a10.496 10.496 0 0 1 10.692 14.092c-9.7 25.952-38.072 74.372-114.956 90.3l-392 89.236-256 343.772z" fill="#F097FD" p-id="5083"></path><path d="M918.572 159.272a11.968 11.968 0 0 1 16.448 16.448l-136.116 223.148-103.48-103.48 223.148-136.116z" fill="#FEDB64" p-id="5084"></path><path d="M713.092 313.052l190.576-116.248a11.96 11.96 0 0 1 16.252 3.672l-121.016 198.392-85.812-85.816z" fill="#FFB175" p-id="5085"></path><path d="M791.648 236.692l51.208-31.232 24.276 81.556-40.656 66.656-34.828-116.98z" fill="#FFFFFF" fill-opacity=".3" p-id="5086"></path><path d="M588.496 167.332a13.9 13.9 0 0 1 18.196 13.728c-0.66 22.576-1.988 59.788-2.696 79.652a17.232 17.232 0 0 0 12.488 17.188l115.36 32.96a39.412 39.412 0 0 1 19.44 12.656l45.424 54.512a73.78 73.78 0 0 1 11.096 18.088c15.4 34.768 71.892 152.3 156.44 216.688a46.676 46.676 0 0 1 19.06 37.632c0.208 15.452 0.208 35.156 0.208 49.328a55.456 55.456 0 0 1-16.04 39.02c-19.588 19.584-57.936 43.872-119.96 27.412 0 0-61.552-30.808-96-84 0 0-64.448 28.488-156-16 0 0-1.36 64.916 28 114 21.304 35.612 44.564 88.872 53.268 127a28.712 28.712 0 0 1-28.036 34.896c-99.84 0.104-412.54 0.104-485.776 0.104a15.36 15.36 0 0 1-15.368-15.404c1.816-81.132 26.324-460.808 323.912-608.596 0 0 7.308-115.14 116.984-150.864z" fill="#EBFFFD" p-id="5087"></path><path d="M724.448 465.188m-34.992 0a34.992 34.992 0 1 0 69.984 0 34.992 34.992 0 1 0-69.984 0Z" fill="#455BA6" p-id="5088"></path><path d="M595.512 666.196s-1.36 64.916 28 114c21.304 35.612 44.564 88.872 53.268 127a28.712 28.712 0 0 1-28.036 34.896c-25.24 0.024-64.08 0.044-109.216 0.06 16.308-47.404 21.036-130.752-0.016-179.956-21.056-49.224-16-172-16-172 20.26 62.676 72 76 72 76z" fill="#BBF6E9" p-id="5089"></path><path d="M823.48 751.84l147.788-132.696a46.708 46.708 0 0 1 12.036 31.292c0.208 15.452 0.208 35.156 0.208 49.328a55.456 55.456 0 0 1-16.04 39.02c-19.588 19.584-57.936 43.872-119.96 27.412 0 0-9.924-4.968-24.032-14.356z" fill="#D7EEF1" p-id="5090"></path><path d="M147.6 641.788m-22.64 0a22.64 22.64 0 1 0 45.28 0 22.64 22.64 0 1 0-45.28 0Z" fill="#92DEFF" p-id="5091"></path><path d="M192.636 483.448a3.604 3.604 0 0 1 4.804 4.808l-9.528 19.94 9.528 19.936a3.604 3.604 0 0 1-4.804 4.808l-19.94-9.528-19.94 9.528a3.608 3.608 0 0 1-4.804-4.808l9.524-19.936-9.524-19.94a3.6 3.6 0 0 1 4.804-4.808l19.94 9.528 19.94-9.528z" fill="#CACBFF" fill-opacity=".4" p-id="5092"></path><path d="M379.2 261.908a4.096 4.096 0 0 1 7.236-2.712l16.152 19.248 25.124-0.476a4.104 4.104 0 0 1 2.712 7.24l-19.248 16.152 0.472 25.124a4.096 4.096 0 1 1-7.236 2.712l-16.152-19.252-25.124 0.476a4.108 4.108 0 0 1-3.916-2.66 4.112 4.112 0 0 1 1.204-4.58l19.248-16.152-0.472-25.12z" fill="#FFB8FF" fill-opacity=".4" p-id="5093"></path><path d="M679.2 209.444a4.096 4.096 0 0 1 7.236-2.712l16.152 19.248 25.124-0.472a4.096 4.096 0 0 1 2.712 7.236l-19.248 16.152 0.472 25.124a4.096 4.096 0 1 1-7.236 2.712l-16.152-19.252-25.124 0.476a4.104 4.104 0 0 1-2.712-7.24l19.248-16.152-0.472-25.12z" fill="#FFB4FF" fill-opacity=".4" p-id="5094"></path></svg>